<?xml version="1.0" standalone="no"?><!DOCTYPE svg PUBLIC "-//W3C//DTD SVG 1.1//EN" "http://www.w3.org/Graphics/SVG/1.1/DTD/svg11.dtd"><svg t="1669453117571" class="icon" viewBox="0 0 1024 1024" version="1.1" xmlns="http://www.w3.org/2000/svg" p-id="6560" xmlns:xlink="http://www.w3.org/1999/xlink" width="200" height="200"><path d="M859.4 23.8H750.1c-19.7 0-35.7 16-35.7 35.7 0 19.7 16 35.7 35.7 35.7h109.3c51.3 0 93.1 41.8 93.1 93.1v633.1c-0.2 59-48.3 107.1-107.2 107.3H178.7c-59-0.2-107.1-48.3-107.3-107.2v-621c0-58.1 47.2-105.3 105.3-105.3H441.3c47.6 0.1 92.3 18.7 125.9 52.5 33.6 33.7 52 78.5 51.9 126.2v285.8c0 59.1-48.1 107.2-107.2 107.2s-107.2-48.1-107.2-107.2V321.5c0-19.7-16-35.7-35.7-35.7s-35.7 16-35.7 35.7v238.1c0 98.5 80.1 178.6 178.6 178.6s178.6-80.1 178.6-178.6V273.9c0.1-66.7-25.7-129.4-72.7-176.7-47-47.2-109.7-73.3-177.3-73.5H176.8C79.3 23.8 0 103.1 0 200.6v621.1c0.3 98.1 80.4 178.2 178.6 178.5h666.9c98.1-0.3 178.2-80.4 178.5-178.6V188.4c0-90.8-73.8-164.6-164.6-164.6z" fill="#eeb173" p-id="6561"></path></svg>